<svg version="1.1" id="Layer_1" xmlns="http://www.w3.org/2000/svg" xmlns:xlink="http://www.w3.org/1999/xlink" x="0px" y="0px"
	 width="100%" viewBox="0 0 496 496" enable-background="new 0 0 496 496" xml:space="preserve">
<path fill="#000000" opacity="1.000000" stroke="none" 
	d="
M220.283463,199.701294 
	C224.830948,212.625961 232.980972,222.246994 243.689133,229.928497 
	C247.167694,232.423843 248.995682,231.799301 250.798416,227.851776 
	C257.856201,212.396973 265.291870,197.114960 272.380280,181.673767 
	C274.010773,178.121948 276.241577,176.751083 280.085327,176.778229 
	C298.415955,176.907608 316.748535,176.923004 335.079132,176.796707 
	C339.637268,176.765305 341.363373,178.506958 341.080414,183.060654 
	C339.359711,210.748535 321.016632,234.156494 294.707520,242.116348 
	C286.922455,244.471725 278.949432,244.532913 270.942291,244.305313 
	C269.078247,244.252319 266.874756,244.128464 267.028534,241.590164 
	C267.184052,239.022385 269.309509,239.331848 271.219177,239.443466 
	C290.282379,240.557587 306.600616,234.536926 319.814880,220.580597 
	C328.581848,211.321304 333.242828,200.074600 335.577301,187.722748 
	C336.336884,183.703857 334.920624,182.049515 330.579407,182.103333 
	C314.750031,182.299606 298.915070,182.311935 283.086243,182.096817 
	C279.093903,182.042542 277.150726,183.592590 275.533875,187.045288 
	C258.509460,223.400269 241.361282,259.697327 224.207794,295.991730 
	C223.265289,297.985931 222.998047,301.032349 219.979752,300.881927 
	C217.143356,300.740631 216.768784,297.787415 215.817062,295.776001 
	C198.505463,259.187500 181.210083,222.591171 164.050217,185.931427 
	C162.871307,183.412827 159.381409,179.600693 163.353073,177.809372 
	C166.891739,176.213348 167.502090,181.176392 168.658051,183.622025 
	C184.744263,217.655380 200.706100,251.747482 216.723206,285.813538 
	C217.565720,287.605408 218.630859,289.292603 219.561493,290.972839 
	C221.549988,290.852722 221.757080,289.268250 222.272659,288.183502 
	C229.566666,272.837891 236.699905,257.414948 244.110535,242.126328 
	C245.874878,238.486343 245.077469,236.724182 241.802246,234.540741 
	C220.802292,220.540848 210.517395,200.567017 211.854126,175.553696 
	C213.950836,136.320236 247.543793,114.092781 274.621033,114.420441 
	C290.741272,114.615517 304.733673,118.908203 317.214752,128.795288 
	C317.736938,129.208954 318.299194,129.593231 318.741486,130.082718 
	C320.328796,131.839447 323.722504,133.543884 321.652008,136.086212 
	C319.275604,139.004105 317.320770,135.521561 315.629608,134.091415 
	C297.435425,118.705452 276.807037,115.050545 254.853165,123.341263 
	C233.732483,131.317337 221.364380,147.572235 217.566071,169.783569 
	C215.873367,179.681976 216.508087,189.727020 220.283463,199.701294 
z"/>
<path fill="#000000" opacity="1.000000" stroke="none" 
	d="
M281.340149,344.147461 
	C280.540131,347.014679 283.158417,351.505219 279.361237,351.575348 
	C276.364807,351.630676 277.854401,347.201965 277.740875,344.791534 
	C277.498779,339.651428 277.619598,334.491577 277.690094,329.341187 
	C277.708832,327.973724 277.090363,326.150482 279.218628,325.646118 
	C281.057037,325.210510 282.407257,325.962860 283.436371,327.528992 
	C286.791077,332.634247 290.190491,337.710052 294.106049,343.599396 
	C295.466187,338.479523 294.532806,334.214569 294.890564,330.048950 
	C295.035889,328.357056 294.346985,325.864075 297.041992,325.800598 
	C299.845795,325.734558 299.193451,328.275391 299.216888,329.939331 
	C299.303467,336.086456 299.277405,342.235840 299.225250,348.383789 
	C299.213013,349.828247 299.404633,351.549866 297.501770,352.104156 
	C295.657532,352.641388 294.289520,351.825806 293.267639,350.289551 
	C289.688416,344.908752 286.100525,339.533752 281.339722,334.237854 
	C281.339722,337.388336 281.339722,340.538788 281.340149,344.147461 
z"/>
<path fill="#000000" opacity="1.000000" stroke="none" 
	d="
M325.922119,339.099792 
	C324.484161,337.348480 323.997803,335.231140 321.326233,334.113342 
	C321.326233,339.058380 321.379059,343.658630 321.293854,348.256287 
	C321.268433,349.627502 321.786102,351.684875 319.673767,351.859558 
	C317.423645,352.045654 317.735352,349.964447 317.723907,348.579926 
	C317.662109,341.108002 317.694641,333.635254 317.694641,326.343689 
	C320.800964,324.725006 322.400360,325.961700 323.844330,328.208954 
	C327.024353,333.157928 330.342316,338.018219 333.604004,342.914734 
	C334.045807,342.776611 334.487610,342.638519 334.929413,342.500397 
	C334.929413,338.237976 334.873291,333.974457 334.958801,329.713745 
	C334.990204,328.148804 334.592072,325.902893 336.953430,325.807983 
	C339.810791,325.693146 339.188446,328.205414 339.210938,329.876404 
	C339.293793,336.041107 339.267334,342.207886 339.213318,348.373322 
	C339.200653,349.820404 339.398407,351.539154 337.485931,352.102844 
	C335.612061,352.655182 334.257141,351.772675 333.252991,350.251495 
	C330.866791,346.636780 328.497620,343.010803 325.922119,339.099792 
z"/>
<path fill="#000000" opacity="1.000000" stroke="none" 
	d="
M233.122726,326.343567 
	C237.615143,329.878143 238.932114,334.484528 235.797165,338.085999 
	C233.145706,341.132019 233.964600,343.200867 235.744736,345.866333 
	C236.906982,347.606628 238.419006,349.266846 238.411194,351.579285 
	C236.029953,353.021515 234.544205,352.045654 233.375824,350.091217 
	C232.269379,348.240326 231.184219,346.376740 230.078415,344.525452 
	C229.133270,342.943146 228.203140,341.130127 225.936798,341.720734 
	C223.771973,342.284882 224.268143,344.294983 224.148026,345.880890 
	C224.047943,347.202301 224.117737,348.538269 223.985291,349.855042 
	C223.859055,351.109863 223.296417,352.096161 221.809860,352.049561 
	C220.306824,352.002502 219.823746,350.940674 219.815735,349.704559 
	C219.768524,342.405884 219.758148,335.106750 219.785889,327.807983 
	C219.793427,325.822540 221.223434,325.312714 222.853409,325.402771 
	C226.154922,325.585236 229.449570,325.891418 233.122726,326.343567 
M230.515961,337.249420 
	C233.585449,333.676727 233.359573,330.445221 229.846817,329.552612 
	C228.149796,329.121399 225.943893,328.609741 224.761108,330.380737 
	C223.630707,332.073303 223.757462,334.339600 224.513474,336.166962 
	C225.536942,338.640747 227.895065,337.507904 230.515961,337.249420 
z"/>
<path fill="#000000" opacity="1.000000" stroke="none" 
	d="
M357.692291,346.869263 
	C357.695129,340.723236 357.786621,335.062927 357.669189,329.406982 
	C357.607208,326.423492 358.685913,325.165100 361.774780,325.374786 
	C364.414520,325.553986 367.087189,325.187714 369.739929,325.260284 
	C371.158508,325.299072 373.051300,325.270447 372.947998,327.453308 
	C372.861511,329.279907 371.234100,329.191284 369.922913,329.253387 
	C368.594269,329.316315 367.257690,329.338287 365.930115,329.270172 
	C363.128326,329.126404 362.088928,330.472931 362.129028,333.191162 
	C362.167694,335.813629 363.463165,336.482513 365.860382,336.707733 
	C368.087830,336.917053 372.098480,335.276428 372.122650,338.448914 
	C372.148041,341.774017 368.124878,340.167389 365.936646,340.233185 
	C362.648712,340.331970 362.142700,342.034363 362.121155,344.720398 
	C362.099670,347.399078 363.043243,348.574066 365.872925,348.739075 
	C368.267853,348.878693 372.703125,347.286102 372.577515,350.489044 
	C372.435577,354.106506 367.956116,352.125946 365.458374,352.243225 
	C362.018677,352.404755 357.098663,353.969666 357.692291,346.869263 
z"/>
<path fill="#000000" opacity="1.000000" stroke="none" 
	d="
M132.820892,331.345642 
	C134.436142,335.705505 135.900711,339.706268 137.874268,345.097382 
	C139.655533,340.250031 140.700653,336.632690 142.303116,333.281921 
	C143.664200,330.435883 142.971771,325.436218 149.513245,325.718628 
	C146.263504,334.564941 143.498001,342.682892 140.250534,350.603241 
	C139.160431,353.261932 136.451706,353.083069 135.402390,350.454346 
	C132.233154,342.514862 129.463058,334.416016 126.477554,326.214935 
	C131.965775,324.464752 131.373337,328.789520 132.820892,331.345642 
z"/>
<path fill="#000000" opacity="1.000000" stroke="none" 
	d="
M203.515228,326.062195 
	C204.626328,329.272125 202.465195,329.331116 200.662064,329.218689 
	C197.012650,328.991119 196.129791,330.814789 196.240250,334.062683 
	C196.403671,338.868256 196.307404,343.684418 196.241470,348.494995 
	C196.221832,349.927734 196.433243,351.820801 194.368912,351.990417 
	C191.990707,352.185791 191.881714,350.232697 191.863068,348.552490 
	C191.809647,343.741760 191.736496,338.927063 191.874985,334.119812 
	C191.966873,330.929932 191.162415,328.965668 187.468002,329.241730 
	C186.037628,329.348602 184.064499,329.351532 184.085739,327.288910 
	C184.111298,324.809113 186.323944,325.184509 187.849716,325.345184 
	C192.964859,325.883850 198.127228,324.633881 203.515228,326.062195 
z"/>
<path fill="#000000" opacity="1.000000" stroke="none" 
	d="
M200.628784,373.437286 
	C202.465439,376.575592 203.551270,379.767426 200.374390,382.023895 
	C197.180756,384.292297 190.663849,382.577545 188.840393,379.176514 
	C186.812714,375.394562 186.723145,371.315125 189.762589,368.053986 
	C192.981888,364.599915 196.969177,365.219208 201.083481,366.525848 
	C200.151001,369.804047 198.205017,368.356659 196.792374,368.338287 
	C194.614426,368.309937 192.816666,368.884155 191.803558,370.898346 
	C190.691299,373.109650 190.675705,375.476959 191.877594,377.597870 
	C193.116486,379.784088 195.505692,380.564606 197.436584,379.221832 
	C200.452087,377.124817 196.396896,376.249237 196.115707,374.549744 
	C196.984802,372.522522 198.655228,372.950836 200.628784,373.437286 
z"/>
<path fill="#000000" opacity="1.000000" stroke="none" 
	d="
M256.943604,373.127350 
	C257.869110,376.237946 259.942719,378.695160 259.350861,381.878357 
	C255.465179,382.490204 256.334808,377.364777 252.781387,377.294250 
	C249.056335,377.220306 249.298813,381.492645 245.483963,382.335754 
	C246.695694,375.926849 248.854324,370.640228 252.045868,365.505188 
	C255.501907,367.235809 255.385971,370.482208 256.943604,373.127350 
z"/>
<path fill="#000000" opacity="1.000000" stroke="none" 
	d="
M254.695160,341.966034 
	C254.701126,337.326355 254.676941,333.177460 254.729584,329.029572 
	C254.748199,327.564117 254.619690,325.812134 256.787598,325.727722 
	C258.888885,325.645905 259.123322,327.244171 259.130676,328.799377 
	C259.161987,335.436462 259.168793,342.074005 259.122711,348.710907 
	C259.112427,350.191833 259.063446,351.961823 257.001953,352.023621 
	C254.471237,352.099518 254.819672,350.002075 254.737427,348.429718 
	C254.633545,346.443573 254.701477,344.448456 254.695160,341.966034 
z"/>
<path fill="#000000" opacity="1.000000" stroke="none" 
	d="
M168.326401,332.244019 
	C168.316971,338.002136 168.344009,343.293610 168.271988,348.583740 
	C168.252930,349.983948 168.546127,351.946594 166.388565,351.966492 
	C163.983505,351.988739 164.174316,349.860596 164.153839,348.294678 
	C164.075989,342.343597 164.031662,336.388550 164.180023,330.440125 
	C164.224335,328.663727 163.627197,325.786499 166.565857,325.902924 
	C169.276138,326.010284 167.973892,328.698761 168.307083,330.291962 
	C168.406525,330.767456 168.324615,331.280853 168.326401,332.244019 
z"/>
<path fill="#000000" opacity="1.000000" stroke="none" 
	d="
M279.911835,375.017334 
	C276.941986,373.250458 274.756744,371.059296 276.722992,367.979553 
	C279.057281,364.323395 282.572235,365.541626 286.184845,366.415863 
	C284.895264,370.241760 281.032990,366.919373 279.637390,370.070709 
	C280.934723,373.834503 291.198883,373.988342 285.288666,381.058929 
	C282.940094,383.868622 279.150269,383.840881 275.846985,380.948029 
	C277.817993,378.217682 281.358429,381.141846 283.134735,378.483154 
	C283.546387,376.256287 281.575684,375.982605 279.911835,375.017334 
z"/>
<path fill="#000000" opacity="1.000000" stroke="none" 
	d="
M312.908142,366.123962 
	C314.307800,368.058105 313.083282,368.279053 311.811523,368.397369 
	C310.389313,368.529724 308.748016,367.877991 307.468933,370.155853 
	C309.423126,373.574646 318.561859,374.738556 312.678009,381.327087 
	C310.538177,383.723236 306.772003,383.784882 303.905731,381.000275 
	C304.232300,380.491089 304.339325,380.108887 304.580719,379.981812 
	C306.568695,378.935394 310.008057,381.125885 310.771759,378.262451 
	C311.590576,375.192261 307.659943,375.530304 306.105103,374.027405 
	C304.575653,372.549103 303.338562,371.026642 304.018829,368.808899 
	C304.688354,366.626038 306.413086,365.689026 308.614349,365.680908 
	C309.937286,365.676025 311.260895,365.846222 312.908142,366.123962 
z"/>
<path fill="#000000" opacity="1.000000" stroke="none" 
	d="
M219.811279,373.061035 
	C220.178772,370.376343 218.845230,367.623230 221.666229,366.051971 
	C223.913330,367.342621 223.213181,369.359589 223.256027,371.043732 
	C223.443604,378.414520 223.403732,378.415527 229.930618,380.893005 
	C227.280762,383.314209 224.344070,382.777924 221.682037,382.103088 
	C219.083466,381.444366 219.989822,378.879700 219.824646,377.011627 
	C219.722809,375.859650 219.810501,374.690857 219.811279,373.061035 
z"/>
</svg>