<?xml version="1.0" encoding="UTF-8"?>
<!DOCTYPE svg PUBLIC "-//W3C//DTD SVG 1.1//EN" "http://www.w3.org/Graphics/SVG/1.1/DTD/svg11.dtd">
<svg xmlns="http://www.w3.org/2000/svg" version="1.1" width="500px" height="500px" style="shape-rendering:geometricPrecision; text-rendering:geometricPrecision; image-rendering:optimizeQuality; fill-rule:evenodd; clip-rule:evenodd" xmlns:xlink="http://www.w3.org/1999/xlink">
<g><path style="opacity:1" fill="#fefefe" d="M -0.5,-0.5 C 166.167,-0.5 332.833,-0.5 499.5,-0.5C 499.5,166.167 499.5,332.833 499.5,499.5C 332.833,499.5 166.167,499.5 -0.5,499.5C -0.5,332.833 -0.5,166.167 -0.5,-0.5 Z"/></g>
<g><path style="opacity:1" fill="#e1e1e1" d="M 267.5,113.5 C 270.767,113.424 272.101,114.757 271.5,117.5C 270.667,116.5 269.833,115.5 269,114.5C 267.649,116.019 266.149,117.352 264.5,118.5C 264.167,118.167 263.833,117.833 263.5,117.5C 265.188,116.479 266.521,115.145 267.5,113.5 Z"/></g>
<g><path style="opacity:1" fill="#d4d4d4" d="M 213.5,166.5 C 214.239,166.369 214.906,166.536 215.5,167C 214.663,168.011 214.33,169.178 214.5,170.5C 213.5,170.5 212.5,170.5 211.5,170.5C 211.527,168.801 212.194,167.467 213.5,166.5 Z"/></g>
<g><path style="opacity:1" fill="#dcdcdc" d="M 293.5,176.5 C 293.897,175.475 294.563,175.308 295.5,176C 297.329,177.113 298.163,178.613 298,180.5C 296.629,178.959 295.129,177.625 293.5,176.5 Z"/></g>
<g><path style="opacity:1" fill="#d7d7d7" d="M 331.5,177.5 C 331.897,176.475 332.563,176.308 333.5,177C 335.954,178.74 337.454,180.907 338,183.5C 335.963,181.294 333.797,179.294 331.5,177.5 Z"/></g>
<g><path style="opacity:1" fill="#dedede" d="M 279.5,175.5 C 280.525,175.897 280.692,176.563 280,177.5C 277,180.5 274,183.5 271,186.5C 271.263,187.951 271.096,189.284 270.5,190.5C 269.112,189.409 268.612,188.076 269,186.5C 272.704,182.964 276.204,179.298 279.5,175.5 Z"/></g>
<g><path style="opacity:1" fill="#d7d7d7" d="M 335.5,193.5 C 336.239,193.369 336.906,193.536 337.5,194C 335.667,195.833 333.833,197.667 332,199.5C 331.333,198.833 331.333,198.167 332,197.5C 333.376,196.295 334.542,194.962 335.5,193.5 Z"/></g>
<g><path style="opacity:1" fill="#d8d8d8" d="M 172.5,202.5 C 173.82,203.942 175.486,204.608 177.5,204.5C 177.905,206.65 178.405,208.65 179,210.5C 175.869,208.543 173.702,205.877 172.5,202.5 Z"/></g>
<g><path style="opacity:1" fill="#b3b3b3" d="M 261.5,201.5 C 262.5,201.5 263.5,201.5 264.5,201.5C 264.201,205.105 263.035,208.439 261,211.5C 259.989,212.337 258.822,212.67 257.5,212.5C 257.238,211.022 257.571,209.689 258.5,208.5C 259.895,209.815 260.895,209.481 261.5,207.5C 260.181,205.468 260.181,203.468 261.5,201.5 Z"/></g>
<g><path style="opacity:1" fill="#dcdcdc" d="M 224.5,217.5 C 228.631,221.13 232.631,224.963 236.5,229C 235.833,229.667 235.167,229.667 234.5,229C 230.561,225.571 227.228,221.737 224.5,217.5 Z"/></g>
<g><path style="opacity:1" fill="#d7d7d7" d="M 294.5,234.5 C 295.525,234.897 295.692,235.563 295,236.5C 293.578,238.638 291.745,239.805 289.5,240C 291.373,238.296 293.04,236.463 294.5,234.5 Z"/></g>
<g><path style="opacity:1" fill="#e2e2e2" d="M 282.5,238.5 C 284.196,238.685 285.529,239.519 286.5,241C 284.055,241.91 282.722,241.076 282.5,238.5 Z"/></g>
<g><path style="opacity:1" fill="#dbdbdb" d="M 241.5,250.5 C 242.525,250.897 242.692,251.563 242,252.5C 239.936,255.274 237.436,257.107 234.5,258C 237.039,255.63 239.372,253.13 241.5,250.5 Z"/></g>
<g><path style="opacity:1" fill="#dbdbdb" d="M 204.5,272.5 C 207.394,273.882 209.894,275.882 212,278.5C 212.72,280.112 212.554,281.612 211.5,283C 210.833,283.667 210.167,283.667 209.5,283C 210.357,282.311 211.023,281.478 211.5,280.5C 209.093,277.769 206.759,275.102 204.5,272.5 Z"/></g>
</svg>
