<svg version="1.1" id="Layer_1" xmlns="http://www.w3.org/2000/svg" xmlns:xlink="http://www.w3.org/1999/xlink" x="0px" y="0px"
	 width="100%" viewBox="0 0 496 496" enable-background="new 0 0 496 496" xml:space="preserve">
<path fill="#000000" opacity="1.000000" stroke="none" 
	d="
M215.181824,200.569321 
	C203.942917,165.844147 221.253464,131.322617 251.801132,119.227104 
	C276.024811,109.635612 298.900360,113.361885 319.114655,130.429413 
	C319.999176,131.176208 320.815887,132.038666 321.515472,132.960144 
	C322.397644,134.121979 322.630005,135.452957 321.434479,136.550964 
	C320.396759,137.504028 319.240479,137.122726 318.255951,136.361038 
	C317.203827,135.547043 316.239197,134.621033 315.216522,133.767700 
	C296.759521,118.366425 275.831329,114.842987 253.916824,123.709206 
	C231.724472,132.687836 219.266800,150.154129 217.192734,174.259216 
	C215.192856,197.501846 224.486526,215.720703 243.048355,229.417526 
	C247.790314,232.916626 248.538422,232.598785 251.048645,227.255035 
	C258.131592,212.176895 265.304565,197.139984 272.235748,181.992416 
	C273.922302,178.306549 276.179016,176.756409 280.272491,176.791458 
	C298.437195,176.947052 316.604034,176.837952 334.769989,176.875763 
	C340.263916,176.887207 341.380768,178.106522 341.028534,183.271225 
	C339.126801,211.155609 320.800354,234.325943 294.481384,242.167419 
	C286.694794,244.487366 278.720337,244.597153 270.709656,244.311722 
	C268.819275,244.244354 266.725311,243.965744 267.038177,241.383698 
	C267.306030,239.172897 269.202515,239.278824 270.943024,239.408005 
	C303.933655,241.856491 329.634888,219.606674 335.223816,189.470123 
	C336.433197,182.948883 335.935547,182.179459 329.367737,182.175354 
	C313.701599,182.165543 298.034698,182.260040 282.369995,182.113129 
	C279.050964,182.082016 277.321808,183.236115 275.916077,186.238052 
	C258.749451,222.897659 241.461166,259.500336 224.182053,296.107208 
	C223.288940,297.999329 222.967239,300.727234 220.356262,300.894043 
	C217.348373,301.086182 216.920303,298.124268 215.976654,296.126801 
	C198.756668,259.677124 181.585373,223.204422 164.410660,186.733353 
	C163.701126,185.226608 163.008530,183.708023 162.399261,182.159073 
	C161.787323,180.603348 160.990845,178.709656 162.911987,177.725693 
	C165.138107,176.585526 166.245209,178.473724 167.054382,180.154327 
	C170.595322,187.508698 174.103165,194.879395 177.566772,202.270538 
	C190.501816,229.873367 203.406418,257.490479 216.352722,285.088043 
	C217.326553,287.163910 218.181564,289.352020 219.928757,290.976349 
	C221.623276,290.651520 221.840866,289.124695 222.366196,288.018738 
	C229.656128,272.670776 236.807968,257.256744 244.184357,241.950760 
	C245.796143,238.606323 245.448624,236.777267 242.134048,234.703644 
	C229.262253,226.650818 220.303680,215.340332 215.181824,200.569321 
z"/>
<path fill="#000000" opacity="1.000000" stroke="none" 
	d="
M225.160126,344.940369 
	C224.000626,342.851898 223.029633,341.042511 220.472961,341.622345 
	C217.537582,342.288055 218.754684,344.711060 218.381897,346.495453 
	C217.984192,348.399078 219.681198,351.814697 216.756653,351.875122 
	C213.300171,351.946533 214.814331,348.327362 214.739243,346.338165 
	C214.526627,340.704712 214.751862,335.056274 214.664566,329.415894 
	C214.621796,326.652191 215.793777,325.455719 218.515930,325.596558 
	C220.005753,325.673676 221.502121,325.651886 222.995102,325.635284 
	C226.472397,325.596680 229.688431,326.139038 231.373810,329.705231 
	C233.077026,333.309204 232.330963,336.582550 229.454071,339.182800 
	C227.811401,340.667480 228.121078,341.871613 229.021622,343.502563 
	C230.444458,346.079468 232.572693,348.292603 233.266129,351.279755 
	C229.373825,352.479126 229.373825,352.479126 225.160126,344.940369 
M222.465530,329.312134 
	C218.607880,329.010498 218.288284,331.436646 218.401581,334.394196 
	C218.501007,336.990021 219.867142,337.766937 222.225266,337.719299 
	C224.899963,337.665222 227.277710,337.222504 227.605316,333.988312 
	C227.919632,330.885437 226.219193,329.461670 222.465530,329.312134 
z"/>
<path fill="#000000" opacity="1.000000" stroke="none" 
	d="
M279.832611,348.005615 
	C282.546234,341.139252 285.083130,334.625061 287.747101,328.163208 
	C288.827576,325.542419 291.308502,323.870209 292.765381,327.008301 
	C296.431305,334.904602 299.765930,343.009583 302.198944,351.394775 
	C299.063934,353.007416 298.023956,351.335724 297.347565,349.294708 
	C296.246460,345.972076 294.546387,344.144287 290.538177,344.170807 
	C286.579895,344.197052 284.782471,345.827942 283.789185,349.289337 
	C283.326599,350.901398 282.499878,352.666016 280.342926,352.066132 
	C277.910339,351.389618 279.637848,349.669983 279.832611,348.005615 
M289.672150,340.269226 
	C290.922333,340.517853 292.216064,341.068420 293.575958,339.361694 
	C292.790710,337.249115 291.918640,334.902924 291.046570,332.556702 
	C290.090637,335.173126 286.771606,337.043182 289.672150,340.269226 
z"/>
<path fill="#000000" opacity="1.000000" stroke="none" 
	d="
M262.731445,329.469757 
	C258.935699,329.614014 254.075211,327.090515 252.869675,331.906158 
	C251.837204,336.030487 256.844482,336.358124 259.677795,337.674622 
	C263.334290,339.373657 265.773163,341.794006 265.235077,346.124237 
	C264.687531,350.530304 261.559753,352.271301 257.633179,352.714294 
	C253.950790,353.129791 249.967636,353.823364 247.355072,348.785919 
	C250.971161,348.785919 253.721848,348.837494 256.469513,348.768494 
	C258.436798,348.719116 260.109894,348.024261 260.592590,345.869934 
	C261.091278,343.644257 259.645081,342.479553 257.943634,341.593964 
	C256.617920,340.903961 255.225693,340.341064 253.858521,339.731720 
	C249.958267,337.993439 247.601837,335.265411 248.502731,330.744934 
	C249.451828,325.982513 253.320984,325.207031 257.247742,324.930908 
	C258.851105,324.818146 260.559784,325.280518 262.124908,325.780548 
	C264.070435,326.402039 264.964569,327.587799 262.731445,329.469757 
z"/>
<path fill="#000000" opacity="1.000000" stroke="none" 
	d="
M162.018433,338.898468 
	C160.573929,342.856018 159.293976,346.456635 157.947021,350.032013 
	C157.448715,351.354675 156.574127,352.267029 154.972107,352.215302 
	C153.588852,352.170654 152.874893,351.393494 152.445236,350.207336 
	C149.625595,342.422882 146.806747,334.638153 143.992401,326.866699 
	C147.148666,324.596313 148.220886,326.474731 149.025330,328.625427 
	C150.920380,333.691681 152.728958,338.790314 154.815430,344.546021 
	C158.780975,338.255066 158.869339,331.133301 163.216248,326.008636 
	C163.701202,325.436890 164.788910,325.728027 165.800720,326.519318 
	C165.651443,330.722565 163.189240,334.431641 162.018433,338.898468 
z"/>
<path fill="#000000" opacity="1.000000" stroke="none" 
	d="
M181.659592,344.931610 
	C181.665009,339.276428 181.670654,334.114288 181.675507,328.952118 
	C181.677155,327.198944 181.794174,325.482086 184.136841,325.403931 
	C187.291840,325.298737 190.451614,325.181427 193.605042,325.254364 
	C195.033203,325.287445 196.934097,325.342529 196.810303,327.483673 
	C196.706985,329.270660 195.047928,329.190063 193.734222,329.247986 
	C192.238098,329.313995 190.735626,329.335205 189.239487,329.279602 
	C186.492874,329.177551 185.329987,330.431488 185.380890,333.189850 
	C185.429352,335.815369 186.765167,336.487549 189.147858,336.704254 
	C191.421600,336.911011 195.536530,335.400452 195.560669,338.258514 
	C195.592239,341.997284 191.394989,340.113525 189.108459,340.227386 
	C185.771606,340.393555 185.484589,342.128723 185.407990,344.787537 
	C185.326523,347.614441 186.390472,348.599701 189.153564,348.723572 
	C191.800491,348.842224 194.995987,347.590668 197.714722,351.267487 
	C192.499268,353.044769 187.839798,352.819122 183.501312,351.924347 
	C180.351074,351.274658 182.130753,347.687683 181.659592,344.931610 
z"/>
<path fill="#000000" opacity="1.000000" stroke="none" 
	d="
M334.601562,326.401306 
	C335.010712,329.335266 333.072876,329.333740 331.464294,329.224915 
	C327.700348,328.970306 327.009735,331.031677 327.126099,334.179749 
	C327.273529,338.168427 327.321533,342.173431 327.122772,346.156982 
	C327.018860,348.240021 328.295197,351.730133 325.018097,351.863739 
	C321.413574,352.010712 322.908539,348.419189 322.778992,346.418915 
	C322.532135,342.607666 322.545258,338.759247 322.762421,334.944000 
	C322.975830,331.194244 322.250397,328.708649 317.713959,329.181366 
	C316.380066,329.320343 314.940857,328.878204 314.999420,327.037262 
	C315.040009,325.760376 316.169159,325.265381 317.104309,325.407135 
	C322.844910,326.277161 328.700226,323.885193 334.601562,326.401306 
z"/>
<path fill="#000000" opacity="1.000000" stroke="none" 
	d="
M196.049591,365.634033 
	C198.031296,365.831573 199.866272,365.234924 200.873810,367.187866 
	C200.068268,369.697510 198.127853,368.219849 196.726135,368.288513 
	C192.105743,368.514832 189.433609,372.931183 191.463257,377.103668 
	C192.269073,378.760254 193.569443,379.606934 195.377655,379.692200 
	C196.573578,379.748596 197.784302,379.663544 198.310135,378.353668 
	C199.170609,376.210236 196.053696,376.119385 196.158401,374.242584 
	C197.568268,372.594543 199.386932,372.515747 200.935226,373.767181 
	C202.685730,375.182098 202.101334,377.426758 202.084747,379.376770 
	C202.067337,381.423615 200.731842,382.071228 198.902420,382.482361 
	C193.535873,383.688385 188.716019,381.386414 187.861450,376.815125 
	C186.969955,372.046295 188.114777,365.825226 196.049591,365.634033 
z"/>
<path fill="#000000" opacity="1.000000" stroke="none" 
	d="
M259.336548,379.464691 
	C259.739655,382.145294 258.807159,382.849548 256.991638,381.341522 
	C251.759033,376.995148 251.806778,376.940186 247.104645,381.925781 
	C247.020233,382.015289 246.792099,381.969177 246.238129,382.028198 
	C244.547333,378.912140 247.208679,376.566772 248.055939,374.061310 
	C249.024567,371.196899 249.236282,366.423767 252.354965,366.338409 
	C255.990387,366.238861 255.663208,371.315186 257.226715,374.032288 
	C258.126556,375.596039 258.597870,377.406403 259.336548,379.464691 
z"/>
<path fill="#000000" opacity="1.000000" stroke="none" 
	d="
M283.804657,373.268066 
	C287.153076,375.468597 288.081085,377.998535 285.568329,380.965210 
	C283.276459,383.671051 279.170868,383.425079 276.129486,380.545044 
	C278.056793,378.336639 281.567688,381.214813 283.453278,377.993439 
	C282.452484,373.966522 271.840668,374.036713 277.722534,366.930206 
	C279.637268,364.616852 283.244080,364.783905 285.982605,367.044373 
	C285.248932,368.911255 283.982117,368.540985 282.872040,368.509094 
	C281.704102,368.475586 280.498138,368.258545 279.790955,369.700256 
	C279.822784,372.062836 282.070374,372.137085 283.804657,373.268066 
z"/>
<path fill="#000000" opacity="1.000000" stroke="none" 
	d="
M311.820312,373.440063 
	C314.916870,375.752838 315.154053,378.390167 313.201080,381.013428 
	C311.419830,383.405975 307.147156,383.184967 304.051941,380.854614 
	C304.195984,380.574463 304.274048,380.174927 304.506287,380.039215 
	C306.475769,378.888306 309.897095,381.136444 310.733154,378.362671 
	C311.678741,375.225647 307.769379,375.545563 306.210815,374.105438 
	C304.184784,372.233276 302.644684,370.047089 304.679169,367.663208 
	C307.276337,364.620026 310.529144,365.010315 313.900482,366.935211 
	C312.327454,369.732788 308.877350,366.932129 307.719635,369.849823 
	C307.881927,372.101807 310.119354,372.209747 311.820312,373.440063 
z"/>
<path fill="#000000" opacity="1.000000" stroke="none" 
	d="
M352.649963,325.899536 
	C353.366180,326.037292 353.886078,326.154083 353.910553,326.337097 
	C354.982269,334.355896 354.330231,342.398102 354.165833,350.433014 
	C354.147430,351.332428 353.490570,352.027405 352.560822,351.933472 
	C352.013153,351.878204 351.060608,351.311096 351.063934,350.982025 
	C351.148499,342.612183 348.956024,334.127106 352.649963,325.899536 
z"/>
<path fill="#000000" opacity="1.000000" stroke="none" 
	d="
M227.166779,382.369812 
	C219.887375,382.624237 219.656128,382.562836 219.894806,375.653168 
	C220.004654,372.473480 218.487564,368.813202 221.519043,365.992859 
	C223.926056,367.291199 223.195709,369.330261 223.242661,371.008453 
	C223.450607,378.441772 223.408081,378.442963 229.504730,380.744080 
	C229.674942,382.266083 228.475586,382.132782 227.166779,382.369812 
z"/>
</svg>